<svg xmlns="http://www.w3.org/2000/svg" xmlns:xlink="http://www.w3.org/1999/xlink" width="64" zoomAndPan="magnify" viewBox="0 0 48 48" height="64" preserveAspectRatio="xMidYMid meet" version="1.0"><defs><clipPath id="0b73f16940"><path d="M 1.332031 19 L 18 19 L 18 47 L 1.332031 47 Z M 1.332031 19 " clip-rule="nonzero"/></clipPath></defs><path fill="#45f8bf" d="M 43.59375 23.21875 C 42.382812 23.042969 41.257812 23.902344 41.085938 25.113281 C 40.597656 28.664062 38.996094 31.878906 36.449219 34.414062 C 31.3125 39.546875 23.570312 40.550781 17.421875 37.402344 L 14.378906 40.832031 C 17.617188 42.707031 21.246094 43.648438 24.882812 43.648438 C 30.210938 43.648438 35.535156 41.625 39.59375 37.566406 C 42.820312 34.339844 44.859375 30.246094 45.484375 25.730469 C 45.660156 24.519531 44.816406 23.390625 43.59375 23.21875 Z M 43.59375 23.21875 " fill-opacity="1" fill-rule="nonzero"/><path fill="#45f8bf" d="M 43.578125 4.511719 C 42.359375 4.511719 41.359375 5.507812 41.359375 6.738281 L 41.359375 9.890625 L 39.59375 8.125 C 31.476562 0.015625 18.277344 0.015625 10.15625 8.125 C 7.625 10.660156 5.882812 13.6875 4.929688 16.90625 C 5.789062 16.300781 6.8125 15.964844 7.894531 15.964844 L 10.039062 15.964844 C 10.816406 14.265625 11.914062 12.671875 13.308594 11.277344 C 19.683594 4.898438 30.070312 4.898438 36.445312 11.277344 L 38.210938 13.042969 L 35.058594 13.042969 C 33.820312 13.042969 32.828125 14.039062 32.828125 15.261719 C 32.828125 16.5 33.828125 17.492188 35.058594 17.492188 L 43.578125 17.492188 C 44.816406 17.492188 45.808594 16.492188 45.808594 15.261719 L 45.808594 6.738281 C 45.8125 5.503906 44.816406 4.511719 43.578125 4.511719 Z M 43.578125 4.511719 " fill-opacity="1" fill-rule="nonzero"/><path fill="#45f8bf" d="M 24.789062 11.28125 C 23.5625 11.28125 22.566406 12.28125 22.566406 13.507812 L 22.566406 22.84375 C 22.566406 23.839844 23.230469 24.714844 24.191406 24.988281 L 31.039062 26.90625 C 31.242188 26.964844 31.441406 26.992188 31.640625 26.992188 C 32.613281 26.992188 33.507812 26.34375 33.78125 25.363281 C 34.113281 24.175781 33.417969 22.949219 32.234375 22.617188 L 27.007812 21.152344 L 27.007812 13.507812 C 27.011719 12.273438 26.015625 11.28125 24.789062 11.28125 Z M 24.789062 11.28125 " fill-opacity="1" fill-rule="nonzero"/><g clip-path="url(#0b73f16940)"><path fill="#45f8bf" d="M 15.839844 30.105469 L 12.09375 30.105469 L 16.761719 21.773438 C 17.21875 20.964844 16.632812 19.96875 15.707031 19.96875 L 7.898438 19.96875 C 7.394531 19.96875 6.941406 20.28125 6.761719 20.757812 L 1.625 34.511719 C 1.332031 35.308594 1.914062 36.152344 2.761719 36.152344 L 5.496094 36.152344 L 2.546875 45.179688 C 2.199219 46.230469 3.550781 47.003906 4.285156 46.175781 L 16.753906 32.128906 C 17.445312 31.339844 16.890625 30.105469 15.839844 30.105469 Z M 15.839844 30.105469 " fill-opacity="1" fill-rule="nonzero"/></g></svg>