<svg xmlns="http://www.w3.org/2000/svg" xmlns:xlink="http://www.w3.org/1999/xlink" width="64" zoomAndPan="magnify" viewBox="0 0 48 48" height="64" preserveAspectRatio="xMidYMid meet" version="1.0"><defs><clipPath id="c077e7798e"><path d="M 9.421875 10 L 38.8125 10 L 38.8125 47 L 9.421875 47 Z M 9.421875 10 " clip-rule="nonzero"/></clipPath><clipPath id="4fda9de22a"><path d="M 9.421875 0 L 37 0 L 37 26 L 9.421875 26 Z M 9.421875 0 " clip-rule="nonzero"/></clipPath></defs><g clip-path="url(#c077e7798e)"><path fill="#45f8bf" d="M 35.433594 25.074219 C 34.785156 25.074219 34.179688 25.273438 33.679688 25.613281 C 33.253906 24.390625 32.101562 23.507812 30.734375 23.507812 C 29.6875 23.507812 28.765625 24.027344 28.195312 24.820312 C 27.765625 23.601562 26.617188 22.726562 25.253906 22.726562 C 24.679688 22.726562 24.148438 22.890625 23.6875 23.160156 L 23.6875 12.679688 C 23.6875 11.515625 22.90625 10.433594 21.757812 10.234375 C 20.277344 9.976562 18.988281 11.109375 18.988281 12.546875 L 18.988281 30.945312 C 18.988281 31.179688 18.796875 31.339844 18.59375 31.339844 C 18.515625 31.339844 18.433594 31.3125 18.363281 31.261719 L 13.976562 27.972656 C 13.34375 27.496094 12.492188 27.285156 11.605469 27.519531 C 10.628906 27.777344 9.851562 28.601562 9.652344 29.59375 C 9.421875 30.71875 9.882812 31.753906 10.691406 32.359375 L 14.386719 35.132812 C 15.726562 36.136719 16.835938 37.40625 17.714844 38.832031 C 18.621094 40.308594 19.761719 41.835938 21.351562 43.230469 C 21.847656 43.667969 22.121094 44.308594 22.121094 44.96875 L 22.121094 47 L 34.652344 47 L 34.652344 45.09375 C 34.652344 44.382812 34.863281 43.695312 35.246094 43.09375 C 36.75 40.734375 38.566406 36.769531 38.566406 32.90625 L 38.566406 28.207031 C 38.566406 26.476562 37.164062 25.074219 35.433594 25.074219 Z M 35.433594 25.074219 " fill-opacity="1" fill-rule="nonzero"/></g><path fill="#45f8bf" d="M 17.421875 19.972656 L 17.421875 16.359375 C 16.925781 15.460938 16.640625 14.429688 16.640625 13.328125 C 16.640625 9.871094 19.445312 7.066406 22.902344 7.066406 C 26.363281 7.066406 29.167969 9.871094 29.167969 13.328125 C 29.167969 15.957031 27.546875 18.203125 25.253906 19.132812 L 25.253906 21.160156 C 25.589844 21.160156 25.921875 21.199219 26.246094 21.269531 C 29.34375 19.964844 31.515625 16.902344 31.515625 13.328125 C 31.515625 8.570312 27.660156 4.714844 22.902344 4.714844 C 18.144531 4.714844 14.289062 8.570312 14.289062 13.328125 C 14.289062 16.003906 15.507812 18.394531 17.421875 19.972656 Z M 17.421875 19.972656 " fill-opacity="1" fill-rule="nonzero"/><g clip-path="url(#4fda9de22a)"><path fill="#45f8bf" d="M 17.421875 25.449219 L 17.421875 22.8125 C 14.148438 20.917969 11.941406 17.386719 11.941406 13.328125 C 11.941406 7.273438 16.851562 2.367188 22.90625 2.367188 C 28.960938 2.367188 33.867188 7.273438 33.867188 13.328125 C 33.867188 16.953125 32.105469 20.152344 29.394531 22.148438 C 29.828125 22.019531 30.277344 21.941406 30.734375 21.941406 C 31.414062 21.941406 32.066406 22.09375 32.660156 22.363281 C 34.863281 19.992188 36.21875 16.824219 36.21875 13.328125 C 36.21875 5.976562 30.257812 0.0195312 22.90625 0.0195312 C 15.554688 0.0195312 9.59375 5.976562 9.59375 13.328125 C 9.59375 18.726562 12.808594 23.359375 17.421875 25.449219 Z M 17.421875 25.449219 " fill-opacity="1" fill-rule="nonzero"/></g></svg>