<svg xmlns="http://www.w3.org/2000/svg" xmlns:xlink="http://www.w3.org/1999/xlink" width="64" zoomAndPan="magnify" viewBox="0 0 48 48" height="64" preserveAspectRatio="xMidYMid meet" version="1.0"><defs><clipPath id="ba59820b82"><path d="M 1 0.910156 L 47.507812 0.910156 L 47.507812 25 L 1 25 Z M 1 0.910156 " clip-rule="nonzero"/></clipPath><clipPath id="a2ea8ec130"><path d="M 0.488281 22 L 47 22 L 47 46.460938 L 0.488281 46.460938 Z M 0.488281 22 " clip-rule="nonzero"/></clipPath></defs><g clip-path="url(#ba59820b82)"><path fill="#45f8bf" d="M 1.402344 23.253906 C 1.535156 10.910156 11.621094 0.910156 23.996094 0.910156 C 30.128906 0.910156 35.699219 3.367188 39.777344 7.351562 L 42.339844 4.789062 C 42.503906 4.625 42.726562 4.523438 42.976562 4.523438 C 43.390625 4.523438 43.738281 4.800781 43.847656 5.179688 L 47.460938 17.832031 C 47.484375 17.914062 47.496094 17.996094 47.496094 18.082031 C 47.496094 18.582031 47.089844 18.988281 46.59375 18.988281 C 46.503906 18.988281 46.421875 18.976562 46.34375 18.953125 L 33.6875 15.335938 C 33.3125 15.230469 33.035156 14.882812 33.035156 14.46875 C 33.035156 14.21875 33.136719 13.992188 33.296875 13.828125 L 35.925781 11.199219 C 32.835938 8.195312 28.632812 6.332031 23.996094 6.332031 C 14.527344 6.332031 6.824219 14.039062 6.824219 23.503906 C 6.824219 23.953125 6.839844 24.398438 6.875 24.835938 Z M 1.402344 23.253906 " fill-opacity="1" fill-rule="nonzero"/></g><g clip-path="url(#a2ea8ec130)"><path fill="#45f8bf" d="M 46.589844 23.753906 C 46.457031 36.101562 36.371094 46.101562 23.996094 46.101562 C 17.863281 46.101562 12.292969 43.640625 8.214844 39.660156 L 5.652344 42.222656 C 5.492188 42.382812 5.265625 42.484375 5.015625 42.484375 C 4.601562 42.484375 4.253906 42.210938 4.144531 41.832031 L 0.53125 29.175781 C 0.507812 29.097656 0.496094 29.015625 0.496094 28.925781 C 0.496094 28.429688 0.902344 28.023438 1.402344 28.023438 C 1.488281 28.023438 1.570312 28.035156 1.648438 28.058594 L 14.304688 31.671875 C 14.683594 31.78125 14.960938 32.128906 14.960938 32.542969 C 14.960938 32.792969 14.859375 33.019531 14.695312 33.183594 L 12.066406 35.8125 C 15.15625 38.8125 19.359375 40.675781 23.996094 40.675781 C 33.464844 40.675781 41.171875 32.972656 41.171875 23.503906 C 41.171875 23.058594 41.152344 22.613281 41.121094 22.171875 L 46.59375 23.753906 Z M 46.589844 23.753906 " fill-opacity="1" fill-rule="nonzero"/></g><path fill="#45f8bf" d="M 22.1875 32.386719 L 14.132812 24.332031 L 16.6875 21.773438 L 22.1875 27.277344 L 31.304688 18.160156 L 33.859375 20.714844 Z M 22.1875 32.386719 " fill-opacity="1" fill-rule="nonzero"/></svg>